<svg id="visual" viewBox="0 0 960 300" width="960" height="300" xmlns="http://www.w3.org/2000/svg" xmlns:xlink="http://www.w3.org/1999/xlink" version="1.1"><rect x="0" y="0" width="960" height="300" fill="#1f2937"></rect><path d="M0 178L26.7 183.5C53.3 189 106.7 200 160 203.8C213.3 207.7 266.7 204.3 320 199.2C373.3 194 426.7 187 480 189.7C533.3 192.3 586.7 204.7 640 208.8C693.3 213 746.7 209 800 206.2C853.3 203.3 906.7 201.7 933.3 200.8L960 200L960 301L933.3 301C906.7 301 853.3 301 800 301C746.7 301 693.3 301 640 301C586.7 301 533.3 301 480 301C426.7 301 373.3 301 320 301C266.7 301 213.3 301 160 301C106.7 301 53.3 301 26.7 301L0 301Z" fill="#3882f6"></path><path d="M0 212L26.7 215.8C53.3 219.7 106.7 227.3 160 225.7C213.3 224 266.7 213 320 211.5C373.3 210 426.7 218 480 222.7C533.3 227.3 586.7 228.7 640 224.8C693.3 221 746.7 212 800 208.5C853.3 205 906.7 207 933.3 208L960 209L960 301L933.3 301C906.7 301 853.3 301 800 301C746.7 301 693.3 301 640 301C586.7 301 533.3 301 480 301C426.7 301 373.3 301 320 301C266.7 301 213.3 301 160 301C106.7 301 53.3 301 26.7 301L0 301Z" fill="#6e9cf5"></path><path d="M0 245L26.7 245.7C53.3 246.3 106.7 247.7 160 248.7C213.3 249.7 266.7 250.3 320 249.3C373.3 248.3 426.7 245.7 480 243.3C533.3 241 586.7 239 640 235.2C693.3 231.3 746.7 225.7 800 228.7C853.3 231.7 906.7 243.3 933.3 249.2L960 255L960 301L933.3 301C906.7 301 853.3 301 800 301C746.7 301 693.3 301 640 301C586.7 301 533.3 301 480 301C426.7 301 373.3 301 320 301C266.7 301 213.3 301 160 301C106.7 301 53.3 301 26.7 301L0 301Z" fill="#97b5f3"></path><path d="M0 250L26.7 251.5C53.3 253 106.7 256 160 255C213.3 254 266.7 249 320 248.8C373.3 248.7 426.7 253.3 480 254.8C533.3 256.3 586.7 254.7 640 256.5C693.3 258.3 746.7 263.7 800 261.7C853.3 259.7 906.7 250.3 933.3 245.7L960 241L960 301L933.3 301C906.7 301 853.3 301 800 301C746.7 301 693.3 301 640 301C586.7 301 533.3 301 480 301C426.7 301 373.3 301 320 301C266.7 301 213.3 301 160 301C106.7 301 53.3 301 26.7 301L0 301Z" fill="#becef0"></path><path d="M0 275L26.7 275.7C53.3 276.3 106.7 277.7 160 275.5C213.3 273.3 266.7 267.7 320 267.8C373.3 268 426.7 274 480 277.7C533.3 281.3 586.7 282.7 640 281.2C693.3 279.7 746.7 275.3 800 273.2C853.3 271 906.7 271 933.3 271L960 271L960 301L933.3 301C906.7 301 853.3 301 800 301C746.7 301 693.3 301 640 301C586.7 301 533.3 301 480 301C426.7 301 373.3 301 320 301C266.7 301 213.3 301 160 301C106.7 301 53.3 301 26.7 301L0 301Z" fill="#e5e7eb"></path></svg>