<svg id="visual" viewBox="0 0 960 540" width="960" height="540" xmlns="http://www.w3.org/2000/svg" xmlns:xlink="http://www.w3.org/1999/xlink" version="1.1"><rect x="0" y="0" width="960" height="540" fill="#152339"></rect><g transform="translate(484.224932170544 240.91335212406346)"><path d="M113.1 -162C134.5 -140.1 131.4 -90.9 146.7 -47C162 -3 195.6 35.7 200.1 78.3C204.5 120.8 179.9 167.2 141.7 196C103.5 224.7 51.7 235.9 -0.6 236.7C-52.9 237.5 -105.8 228 -143.7 199.1C-181.6 170.2 -204.4 122 -208.4 75.8C-212.4 29.5 -197.5 -14.9 -181.3 -57C-165 -99.2 -147.5 -139 -117 -157.9C-86.6 -176.9 -43.3 -174.9 1.3 -176.7C45.8 -178.4 91.7 -183.9 113.1 -162" fill="#BB004B"></path></g></svg>