<svg id="visual" viewBox="0 0 900 300" width="900" height="300" xmlns="http://www.w3.org/2000/svg" xmlns:xlink="http://www.w3.org/1999/xlink" version="1.1"><rect width="900" height="300" fill="#fbfbfd"></rect><g><g transform="translate(329 283)"><path d="M68.9 -22.7C77.9 5.1 65.8 39.5 41.4 57.2C17.1 75 -19.5 76.1 -41.5 59.5C-63.5 43 -70.8 8.8 -61.5 -19.6C-52.1 -47.9 -26.1 -70.4 2 -71C30 -71.7 60 -50.4 68.9 -22.7Z" stroke="#6200ee" fill="none" stroke-width="20"></path></g><g transform="translate(722 234)"><path d="M37.9 -11.5C43.4 4.5 38.1 24.9 25.1 34.3C12.1 43.6 -8.6 42 -24 31.2C-39.3 20.5 -49.3 0.6 -44.5 -14.6C-39.6 -29.8 -19.8 -40.2 -1.8 -39.6C16.2 -39.1 32.5 -27.4 37.9 -11.5Z" stroke="#6200ee" fill="none" stroke-width="20"></path></g><g transform="translate(615 15)"><path d="M47.2 -14.9C53 2.6 44 25.4 28.1 36.5C12.2 47.6 -10.7 46.9 -24.5 36.3C-38.3 25.6 -43.1 5.1 -37.5 -12.1C-31.9 -29.3 -15.9 -43.1 2.4 -43.9C20.7 -44.6 41.3 -32.4 47.2 -14.9Z" stroke="#6200ee" fill="none" stroke-width="20"></path></g></g></svg>