<svg id="visual" viewBox="0 0 900 300" width="900" height="300" xmlns="http://www.w3.org/2000/svg" xmlns:xlink="http://www.w3.org/1999/xlink" version="1.1"><rect width="900" height="300" fill="#232323"></rect><g><g transform="translate(133 288)"><path d="M50.1 -59.5C63.6 -48.4 72.2 -31.3 75.3 -13.4C78.3 4.6 75.7 23.4 67.1 39C58.4 54.6 43.7 67 26.7 73.2C9.7 79.4 -9.6 79.4 -26.9 73.3C-44.3 67.3 -59.7 55.3 -68.8 39.6C-77.9 24 -80.8 4.6 -77.5 -13.6C-74.2 -31.8 -64.7 -48.8 -50.8 -59.8C-36.8 -70.8 -18.4 -75.8 -0.1 -75.7C18.3 -75.7 36.6 -70.5 50.1 -59.5Z" stroke="#620bb8" fill="none" stroke-width="20"></path></g><g transform="translate(253 27)"><path d="M16.6 -19.7C21.2 -15.8 24.5 -10.4 25.6 -4.5C26.6 1.4 25.4 7.7 22.5 13.2C19.5 18.6 14.8 23.2 9 25.7C3.2 28.3 -3.7 28.6 -9.4 26.3C-15.1 24 -19.6 19 -22.7 13.3C-25.8 7.6 -27.4 1.2 -26.4 -4.6C-25.3 -10.5 -21.5 -15.8 -16.7 -19.7C-11.8 -23.5 -5.9 -25.9 0 -25.9C6 -25.9 11.9 -23.6 16.6 -19.7Z" stroke="#620bb8" fill="none" stroke-width="20"></path></g><g transform="translate(706 233)"><path d="M24.4 -29.2C30.8 -23.6 34.8 -15.2 36.1 -6.5C37.5 2.2 36.3 11.2 32.2 18.9C28.1 26.6 21.2 33 13.2 35.7C5.1 38.5 -4.1 37.5 -12.2 34.2C-20.3 31 -27.2 25.4 -31.5 18.1C-35.7 10.9 -37.3 2 -35.6 -6.1C-34 -14.2 -29.2 -21.6 -22.7 -27.1C-16.2 -32.6 -8.1 -36.3 0.4 -36.8C9 -37.3 17.9 -34.7 24.4 -29.2Z" stroke="#620bb8" fill="none" stroke-width="20"></path></g><g transform="translate(363 241)"><path d="M5.6 -6.7C7.2 -5.4 8.2 -3.5 8.5 -1.5C8.8 0.5 8.4 2.6 7.4 4.3C6.5 6.1 4.9 7.6 3 8.3C1.1 8.9 -1 8.8 -3 8.1C-4.9 7.4 -6.7 6.1 -7.6 4.4C-8.6 2.7 -8.8 0.6 -8.3 -1.4C-7.9 -3.3 -6.8 -5 -5.3 -6.3C-3.8 -7.6 -1.9 -8.5 0.1 -8.6C2 -8.7 4.1 -8 5.6 -6.7Z" stroke="#620bb8" fill="none" stroke-width="20"></path></g><g transform="translate(763 50)"><path d="M41.3 -49.2C52.6 -39.7 60.4 -25.8 63.9 -10.6C67.5 4.7 66.8 21.5 59.7 35.1C52.6 48.8 39.1 59.4 23.9 64.4C8.7 69.5 -8.1 69 -22.4 63.1C-36.7 57.3 -48.5 46 -56.3 32.5C-64 19 -67.8 3.2 -65.2 -11.5C-62.6 -26.2 -53.6 -39.7 -41.7 -49.1C-29.8 -58.5 -14.9 -63.8 0 -63.9C15 -63.9 29.9 -58.7 41.3 -49.2Z" stroke="#620bb8" fill="none" stroke-width="20"></path></g></g></svg>