<svg id="visual" viewBox="0 0 960 150" width="960" height="150" xmlns="http://www.w3.org/2000/svg" xmlns:xlink="http://www.w3.org/1999/xlink" version="1.1"><rect x="0" y="0" width="960" height="150" fill="#152339"></rect><path d="M0 95L22.8 96C45.7 97 91.3 99 137 100.2C182.7 101.3 228.3 101.7 274 101.7C319.7 101.7 365.3 101.3 411.2 102.7C457 104 503 107 548.8 105.5C594.7 104 640.3 98 686 97.2C731.7 96.3 777.3 100.7 823 103.2C868.7 105.7 914.3 106.3 937.2 106.7L960 107L960 151L937.2 151C914.3 151 868.7 151 823 151C777.3 151 731.7 151 686 151C640.3 151 594.7 151 548.8 151C503 151 457 151 411.2 151C365.3 151 319.7 151 274 151C228.3 151 182.7 151 137 151C91.3 151 45.7 151 22.8 151L0 151Z" fill="#fa7268"></path><path d="M0 110L22.8 110.8C45.7 111.7 91.3 113.3 137 113.8C182.7 114.3 228.3 113.7 274 111.7C319.7 109.7 365.3 106.3 411.2 105.3C457 104.3 503 105.7 548.8 105C594.7 104.3 640.3 101.7 686 103.3C731.7 105 777.3 111 823 113C868.7 115 914.3 113 937.2 112L960 111L960 151L937.2 151C914.3 151 868.7 151 823 151C777.3 151 731.7 151 686 151C640.3 151 594.7 151 548.8 151C503 151 457 151 411.2 151C365.3 151 319.7 151 274 151C228.3 151 182.7 151 137 151C91.3 151 45.7 151 22.8 151L0 151Z" fill="#ef5f67"></path><path d="M0 116L22.8 117C45.7 118 91.3 120 137 120C182.7 120 228.3 118 274 116.8C319.7 115.7 365.3 115.3 411.2 115.8C457 116.3 503 117.7 548.8 119.3C594.7 121 640.3 123 686 123.3C731.7 123.7 777.3 122.3 823 122.3C868.7 122.3 914.3 123.7 937.2 124.3L960 125L960 151L937.2 151C914.3 151 868.7 151 823 151C777.3 151 731.7 151 686 151C640.3 151 594.7 151 548.8 151C503 151 457 151 411.2 151C365.3 151 319.7 151 274 151C228.3 151 182.7 151 137 151C91.3 151 45.7 151 22.8 151L0 151Z" fill="#e34c67"></path><path d="M0 130L22.8 128.3C45.7 126.7 91.3 123.3 137 123.7C182.7 124 228.3 128 274 129.3C319.7 130.7 365.3 129.3 411.2 127.8C457 126.3 503 124.7 548.8 125.3C594.7 126 640.3 129 686 130.7C731.7 132.3 777.3 132.7 823 131.5C868.7 130.3 914.3 127.7 937.2 126.3L960 125L960 151L937.2 151C914.3 151 868.7 151 823 151C777.3 151 731.7 151 686 151C640.3 151 594.7 151 548.8 151C503 151 457 151 411.2 151C365.3 151 319.7 151 274 151C228.3 151 182.7 151 137 151C91.3 151 45.7 151 22.8 151L0 151Z" fill="#d53867"></path><path d="M0 141L22.8 140.8C45.7 140.7 91.3 140.3 137 139.2C182.7 138 228.3 136 274 136C319.7 136 365.3 138 411.2 139.2C457 140.3 503 140.7 548.8 139C594.7 137.3 640.3 133.7 686 133.5C731.7 133.3 777.3 136.7 823 137C868.7 137.3 914.3 134.7 937.2 133.3L960 132L960 151L937.2 151C914.3 151 868.7 151 823 151C777.3 151 731.7 151 686 151C640.3 151 594.7 151 548.8 151C503 151 457 151 411.2 151C365.3 151 319.7 151 274 151C228.3 151 182.7 151 137 151C91.3 151 45.7 151 22.8 151L0 151Z" fill="#c62368"></path></svg>